<?xml version="1.0" encoding="utf-8"?>
<!-- Generator: Adobe Illustrator 15.0.0, SVG Export Plug-In  -->
<!DOCTYPE svg PUBLIC "-//W3C//DTD SVG 1.1//EN" "http://www.w3.org/Graphics/SVG/1.1/DTD/svg11.dtd" [
	<!ENTITY ns_flows "http://ns.adobe.com/Flows/1.0/">
]>
<svg version="1.1"
	 xmlns="http://www.w3.org/2000/svg" xmlns:xlink="http://www.w3.org/1999/xlink" xmlns:a="http://ns.adobe.com/AdobeSVGViewerExtensions/3.0/"
	 x="0px" y="0px" width="243px" height="243px" viewBox="-0.3 -0.6 243 243"
	 overflow="visible" enable-background="new -0.3 -0.6 243 243" xml:space="preserve">
<defs>
</defs>
<path fill="#F9DF31" d="M242.5,120.8c0,66.7-54.3,120.8-121.3,120.8S0,187.6,0,120.8C0,54.1,54.3,0,121.3,0S242.5,54.1,242.5,120.8"
	/>
<path fill="#010101" d="M55.4,139.6c-4.1-4.1-6.1-9.5-6.1-16.3c0-6.7,2.1-12.1,6.3-16.1c4.2-4,9.1-6,14.9-6c5.8,0,10.4,2.4,13.9,7.3
	V84.9h9.1v60.3h-9.1v-6.5c-3.4,4.8-8.3,7.2-14.7,7.2C64.2,145.8,59.5,143.8,55.4,139.6 M58.4,123.8c0,4.1,1.3,7.5,4,10.1
	c2.7,2.6,5.8,3.9,9.3,3.9c3.6,0,6.6-1.3,9.1-3.9c2.5-2.6,3.7-6,3.7-10.1c0-4.1-1.2-7.6-3.7-10.3c-2.5-2.8-5.6-4.1-9.2-4.1
	c-3.6,0-6.7,1.4-9.3,4.1C59.7,116.2,58.4,119.6,58.4,123.8"/>
<path fill="#010101" d="M142.1,139.4c-4.3,4.3-9.8,6.5-16.3,6.5s-11.9-2.2-16.3-6.5c-4.3-4.3-6.5-9.6-6.5-15.8
	c0-6.2,2.2-11.5,6.5-15.8c4.3-4.3,9.8-6.5,16.3-6.5s11.9,2.2,16.3,6.5c4.3,4.3,6.5,9.6,6.5,15.8
	C148.6,129.8,146.5,135.1,142.1,139.4 M116.1,133.8c2.6,2.6,5.8,3.9,9.8,3.9c4,0,7.2-1.3,9.8-3.9c2.6-2.6,3.9-6,3.9-10.2
	c0-4.2-1.3-7.6-3.9-10.2c-2.6-2.6-5.8-3.9-9.8-3.9c-4,0-7.2,1.3-9.8,3.9c-2.6,2.6-3.9,6-3.9,10.2
	C112.2,127.7,113.5,131.1,116.1,133.8"/>
<path fill="#010101" d="M168.3,109.2v21.3c0,2.1,0.5,3.7,1.6,4.9c1.1,1.2,2.6,1.8,4.6,1.8s3.8-0.9,5.6-2.8l3.7,6.4
	c-3.2,2.9-6.7,4.3-10.6,4.3s-7.2-1.3-9.9-4s-4.1-6.3-4.1-10.9v-21.1h-5.4v-7.3h5.4V88.3h9.1v13.6h11.4v7.3H168.3z"/>
</svg>
