<?xml version="1.0" encoding="utf-8"?>
<!-- Generator: Adobe Illustrator 15.0.0, SVG Export Plug-In  -->
<!DOCTYPE svg PUBLIC "-//W3C//DTD SVG 1.1//EN" "http://www.w3.org/Graphics/SVG/1.1/DTD/svg11.dtd" [
	<!ENTITY ns_flows "http://ns.adobe.com/Flows/1.0/">
]>
<svg version="1.1"
	 xmlns="http://www.w3.org/2000/svg" xmlns:xlink="http://www.w3.org/1999/xlink" xmlns:a="http://ns.adobe.com/AdobeSVGViewerExtensions/3.0/"
	 x="0px" y="0px" width="1061px" height="243px" viewBox="-0.2 -0.6 1061 243"
	 overflow="visible" enable-background="new -0.2 -0.6 1061 243" xml:space="preserve">
<defs>
</defs>
<g>
	<path d="M152.8,125.7l3.2,0.9c-3.3,14.9-11.4,27.3-24,37.2c-12.7,9.7-26.7,14.6-42.1,14.6c-18.7,0-34.6-6-47.4-17.9
		c-12.9-12-19.3-26.8-19.3-44.4c0-26.4,13.4-48.5,40.3-66.1c-1.6-0.2-3.2-0.4-4.8-0.5c-1.6-0.2-3.2-0.2-4.9-0.2
		c-18,0-31.4,9.2-40,27.5l-3.2-1.4c3.3-14.3,9.6-25.3,18.8-33c9.2-7.7,20.7-11.6,34.5-11.6c6.7,0,15,0.8,24.9,2.3l14.7,2.4
		c13.8,2.1,22.9,3.2,27.4,3.2c9.7,0,17-4,21.9-12L156,28c-0.7,9.2-4.2,16.5-10.5,21.9c-6.3,5.4-14.6,8.1-25.1,8.1
		c-0.1,0-0.8-0.1-2.1-0.2c-1.3-0.2-3.2-0.3-5.7-0.5v101.2C129.8,154,143.1,143.2,152.8,125.7z M62.5,147.2c4.4-3.1,7-6.3,7.9-9.4
		c0.9-3.1,1.4-10.5,1.4-22.2V50c-8.8,4.3-15.9,11.4-21.3,21.3c-5.4,9.9-8.1,20.8-8.1,32.5C42.4,120.9,49.1,135.3,62.5,147.2z
		 M93.5,108.2c0,9.7-1.2,16.6-3.6,20.7c-2.3,4-9.2,10.6-20.7,19.9c-0.3,0.4-1,1-2.1,1.8c9.8,6.4,20,9.6,30.6,9.6
		c1.4,0,4.9-0.3,10.3-0.9V56.7c-1.2-0.2-3-0.5-5.5-1c-2.4-0.5-5.4-1-9-1.7V108.2z"/>
	<path d="M172.1,157.2V56.1c0-5.6-0.6-9.7-1.8-12.5c-1.1-2.7-3.5-5.7-7.3-9l1.7-2.9c4.7,1.7,9.9,5.3,15.7,10.6
		c5.6-6.7,14-10.9,25.2-12.8l1.2,2.6c-5.2,3-8.6,6.2-10.3,9.4c-1.7,3.2-2.6,8-2.6,14.1v38.6l30.1-24.6c6.7,5,10.8,9.4,12.5,13.2
		c1.8,3.9,2.7,10.2,2.7,19.2V145c0,16.6-4,29.1-11.9,37.4c-7.8,8.5-23.2,16.9-46.1,25.1l-1.4-3.6l2.6-1.4
		c15.2-7.4,24.8-13.8,28.7-19.2c4-5.3,5.9-14.8,5.9-28.6v-51.8c0-4.4-0.3-7.4-0.9-9.3c-0.9-2.2-2.9-4.7-5.9-7.3l-16.4,12.9v57.9
		l6.8,7.9l-19,14l-18.1-14.7L172.1,157.2z"/>
	<path d="M261.9,165.4v-2.1c3.2-1.8,5.3-4.6,6.2-8.2c0.5-2.3,0.8-6,0.8-11.1v-38.3c0-5.5-0.4-8.9-1.1-10.2c-0.7-1.3-2.4-2-5.2-2
		h-0.8l-1.1-2.3c0.4-0.2,0.8-0.4,1.1-0.5c0.4-0.2,0.8-0.3,1.3-0.5c6.8-2.9,13.5-6.1,20.1-9.5c6.6-3.4,13.1-7,19.6-10.9l26.1,33.9
		L290,136.4v19.8c3.2,1.4,6.4,2.9,9.5,4.4c3.1,1.5,6.2,3.1,9.2,4.9l15.5-10.3l2.1,3l-31.5,21C283,171.6,272,167,261.9,165.4z
		 M290,83v46.1l21.9-18.2L290,83z"/>
	<path d="M665.5,178.9l-2.1-2.6c14.4-16.4,29.7-25.9,45.9-28.4v-4.6c0-10.6-3.2-19.8-9.7-27.5c-6.6-7.7-15.1-12.6-25.5-14.6
		l-1.1-3.2L709.2,73v-5.6c0-16.4-6-24.6-17.9-24.6c-3.8,0-8.6,1.8-14.4,5.3l-2.9-3.5c8.3-9.5,17.9-14.3,28.7-14.3
		c4.1,0,7.8,0.7,11.2,2c3.4,1.3,6.3,3.2,8.7,5.6c2.4,2.4,4.3,5.4,5.6,8.8c1.4,3.4,2.1,7.3,2.1,11.6l10.3-7.1V32.4h4.7v15.7l26-17.8
		c16.1,9.8,26.9,18.4,32.4,25.7c5.5,7.2,8.2,16.7,8.2,28.4V151L781,178.5c-5-2.3-11.1-4.7-18.4-7c-3.5-1.1-6.8-2-9.7-2.7
		c-2.9-0.7-5.4-1.1-7.7-1.3v37.4h-36v-39.1C692.8,166.7,678.2,171,665.5,178.9z M709.2,78.8l-19.8,13.4c7.8,4.1,14.4,8.9,19.8,14.6
		V78.8z M740.5,56.3l-10.3,7.4v136.5h10.3V56.3z M790.4,85.6V83c0-3.6-0.6-7.1-1.9-10.3c-1.3-3.2-3.3-6.3-6.1-9.2
		c-2.8-2.9-6.3-5.9-10.6-8.7c-4.3-2.9-9.5-5.9-15.6-8.9l-10.9,7.6v32.8c7.2,5.4,14.3,8.1,21.4,8.1C775.1,94.4,783,91.5,790.4,85.6z
		 M790.4,120.9V91.4c-9.1,5.2-17,7.8-23.7,7.8c-6.6,0-13.7-2.3-21.4-7v29.6c7.7-5,15.6-7.4,23.6-7.4
		C774.9,114.3,782.1,116.5,790.4,120.9z M790.4,126.8c-8.3-5.3-15.7-7.9-22-7.9c-6.5,0-14.2,2.6-23.1,7.9v19.8
		c15.6,1.5,30.7,5.8,45.1,12.8V126.8z"/>
	<path d="M864.9,179.1c-13.2-9.7-26.3-15.1-39.5-16.1v-2.6c3-2.3,5-5.9,5.8-10.8c0.3-1.6,0.5-6,0.5-13.1V87.6
		c11.6-3.9,21.7-9.8,30.4-17.8c5.2,3.8,10.6,6.9,16.2,9.5c5.6,2.6,11.5,4.7,17.7,6.3v76.8C882.3,167.8,872,173.4,864.9,179.1z
		 M874.9,161.9V96.5l-22.5-9.7v65.5L874.9,161.9z"/>
	<path d="M919.4,127.1V88.8c6.9-2.1,12.4-4.6,16.6-7.3c2-1.4,4-3.1,6-5c2-1.9,3.8-4.2,5.5-6.7c10.1,5.3,19.4,7.9,27.8,7.9
		c7.2,0,10.8-2.3,10.8-7c0-1.1-0.3-2.1-0.8-3c-0.6-0.9-1.1-1.8-1.7-2.7c-0.6-0.9-1.1-1.7-1.6-2.6c-0.5-0.9-0.6-1.8-0.5-2.8
		c0-4.1,2.1-6.1,6.4-6.1c5,0,7.4,2.8,7.4,8.5c0,5.5-2.9,12.2-8.8,20.2l-18.4,25.2l22.2,12.9v42.1c-11.1,3.2-21.1,8.8-29.8,16.6
		c-8.7-5.5-16.9-8.2-24.5-8.2c-7.3,0-14.3,2.7-21.1,8.2l-2.9-2.4l27.5-38.6L919.4,127.1z M932.8,157.3c5.3-1.8,10.1-2.7,14.4-2.7
		c6.3,0,13.4,2.1,21.3,6.4v-29l-12.6-7L932.8,157.3z M971.4,93.2c-1.4,0.1-2.8,0.2-4.1,0.2c-1.3,0.1-2.6,0.1-3.8,0.1
		c-8.5,0-16.2-2.3-23-6.8v28.9l10.6,6.2L971.4,93.2z"/>
	<path d="M1039.8,74.2h18.1v11.7h-18.1v68.9c1.9,1.3,3.7,2.6,5.4,3.8s3.3,2.4,4.8,3.5l6.7-5.3l3.2,3.6l-22.6,18.7
		c-7.3-7.4-15.8-12.4-25.5-15v-2.7c2.9-2.2,4.8-4.5,5.6-6.8c0.8-2.4,1.2-7.1,1.2-14V85.9h-9.1v-3.6l30.4-40.3V74.2z"/>
</g>
<path fill="#FADF1D" d="M622.6,120.8c0,66.7-54.3,120.8-121.3,120.8c-67,0-121.3-54.1-121.3-120.8C380.1,54.1,434.4,0,501.3,0
	C568.3,0,622.6,54.1,622.6,120.8"/>
<path d="M435.5,139.6c-4.1-4.1-6.1-9.5-6.1-16.3c0-6.7,2.1-12.1,6.3-16.1c4.2-4,9.1-6,14.9-6c5.8,0,10.4,2.4,13.9,7.3V84.9h9.1v60.3
	h-9.1v-6.5c-3.4,4.8-8.3,7.2-14.7,7.2C444.3,145.8,439.5,143.8,435.5,139.6 M438.5,123.8c0,4.1,1.3,7.5,4,10.1
	c2.7,2.6,5.8,3.9,9.3,3.9c3.6,0,6.6-1.3,9.1-3.9c2.5-2.6,3.7-6,3.7-10.1c0-4.1-1.2-7.6-3.7-10.3c-2.5-2.8-5.6-4.1-9.2-4.1
	c-3.6,0-6.7,1.4-9.3,4.1C439.8,116.2,438.5,119.6,438.5,123.8"/>
<path d="M522.2,139.4c-4.3,4.3-9.8,6.5-16.3,6.5s-11.9-2.2-16.3-6.5c-4.3-4.3-6.5-9.6-6.5-15.8c0-6.2,2.2-11.5,6.5-15.8
	c4.3-4.3,9.8-6.5,16.3-6.5s11.9,2.2,16.3,6.5c4.3,4.3,6.5,9.6,6.5,15.8C528.7,129.8,526.5,135.1,522.2,139.4 M496.1,133.8
	c2.6,2.6,5.8,3.9,9.8,3.9c4,0,7.2-1.3,9.8-3.9c2.6-2.6,3.9-6,3.9-10.2c0-4.2-1.3-7.6-3.9-10.2c-2.6-2.6-5.8-3.9-9.8-3.9
	c-4,0-7.2,1.3-9.8,3.9c-2.6,2.6-3.9,6-3.9,10.2C492.3,127.7,493.6,131.1,496.1,133.8"/>
<path d="M548.4,109.2v21.3c0,2.1,0.5,3.7,1.6,4.9c1.1,1.2,2.6,1.8,4.6,1.8s3.8-0.9,5.6-2.8l3.7,6.4c-3.2,2.9-6.7,4.3-10.6,4.3
	c-3.9,0-7.2-1.3-9.9-4c-2.7-2.7-4.1-6.3-4.1-10.9v-21.1h-5.4v-7.3h5.4V88.3h9.1v13.6h11.4v7.3H548.4z"/>
</svg>
